<?xml version="1.0" standalone="no"?>
<!DOCTYPE svg PUBLIC "-//W3C//DTD SVG 20010904//EN"
 "http://www.w3.org/TR/2001/REC-SVG-20010904/DTD/svg10.dtd">
<svg version="1.0" xmlns="http://www.w3.org/2000/svg"
 width="512.000000pt" height="512.000000pt" viewBox="0 0 512.000000 512.000000"
 preserveAspectRatio="xMidYMid meet">
<metadata>
Created by potrace 1.14, written by Peter Selinger 2001-2017
</metadata>
<g transform="translate(0.000000,512.000000) scale(0.100000,-0.100000)"
fill="#000000" stroke="none">
<path d="M958 4367 c-48 -13 -93 -51 -116 -99 -19 -40 -21 -62 -22 -295 0
-199 2 -253 12 -254 7 0 43 -1 81 -1 37 0 67 -3 68 -6 1 -4 2 -40 3 -79 l2
-73 -31 -1 c-16 -1 -54 -1 -82 0 -49 1 -53 0 -53 -22 0 -22 3 -23 73 -22 39 1
77 0 83 -2 6 -2 10 -34 9 -81 l-1 -76 -79 -1 -80 0 -3 -328 c-2 -306 -1 -327
15 -328 10 -1 47 -2 83 -2 l65 -2 1 -77 2 -78 -37 -1 c-20 0 -58 -1 -85 -1
l-48 0 5 -142 c5 -155 19 -219 71 -329 87 -188 249 -327 461 -398 l70 -24 860
-2 c923 -3 905 -4 1047 48 114 42 245 143 329 255 76 100 136 263 140 382 1
29 5 52 8 53 3 1 80 2 171 4 209 3 263 10 390 52 305 102 556 366 639 674 30
110 32 125 36 239 15 497 -330 919 -825 1011 -77 15 -3207 20 -3262 6z m618
-446 c18 -1 20 -8 21 -79 l1 -79 -82 0 -81 0 2 81 c1 44 2 81 2 81 5 0 121 -4
137 -4z m221 -5 c3 -3 6 -39 7 -80 l1 -74 -80 2 -80 1 -1 77 c-1 63 2 78 15
80 24 5 132 0 138 -6z m2388 -60 c241 -70 396 -313 355 -554 -31 -183 -156
-329 -336 -393 -50 -17 -86 -21 -226 -23 -110 -1 -169 2 -171 8 -3 10 -1 963
2 977 0 3 72 4 159 4 116 -1 172 -6 217 -19z m-2794 -169 c2 -63 0 -120 -5
-124 -3 -3 -31 -5 -63 -5 -102 0 -93 -8 -91 80 l2 79 78 0 78 1 1 -31z m200
25 c3 -1 6 -36 6 -77 1 -83 8 -77 -82 -77 -86 0 -80 -5 -78 69 0 38 2 73 2 79
1 7 26 11 74 9 39 -1 75 -3 78 -3z m213 -75 l-1 -80 -64 1 c-35 0 -71 0 -79 1
-13 1 -16 16 -17 79 l-2 78 82 1 82 0 -1 -80z m-622 -126 c3 -1 6 -36 5 -78
l-2 -78 -75 0 -75 0 -5 55 c-3 30 -3 67 -2 81 4 25 5 25 75 23 40 -1 75 -2 79
-3z m210 -47 c2 -28 1 -64 -2 -80 -5 -29 -5 -29 -82 -29 l-76 -1 -1 74 c0 41
1 77 3 81 2 3 38 6 79 6 l75 1 4 -52z m202 36 c2 -8 4 -44 4 -80 l0 -66 -76 1
c-87 0 -88 2 -85 93 1 31 2 59 2 62 1 3 35 5 76 5 59 0 76 -3 79 -15z m200 9
c3 -3 6 -29 7 -59 3 -102 9 -95 -80 -95 l-78 0 2 80 c1 44 3 80 4 80 9 4 142
-2 145 -6z m-605 -279 l0 -80 -79 0 -79 0 -3 38 c-2 20 -1 56 1 80 l3 42 78 0
78 0 1 -80z m407 -2 l2 -78 -79 0 c-45 0 -79 4 -80 10 0 6 -2 42 -2 80 l-2 71
80 -3 80 -3 1 -77z m205 50 c1 -18 1 -53 1 -78 l1 -45 -80 -3 -80 -3 0 73 c-1
40 1 76 4 81 2 4 38 7 79 7 l74 0 1 -32z m-206 -253 l0 -80 -74 0 c-55 0 -75
3 -79 14 -5 12 -6 91 -3 136 1 6 34 10 78 10 l78 0 0 -80z m198 75 c9 -9 14
-103 7 -130 -5 -23 -10 -24 -70 -25 -36 -1 -70 0 -76 2 -6 2 -11 36 -11 81
l-1 77 73 0 c40 0 76 -2 78 -5z m-196 -280 l0 -80 -78 0 c-45 0 -79 4 -80 10
0 6 -1 30 -1 55 0 104 -8 95 81 95 l79 0 -1 -80z m204 55 c0 -14 1 -45 1 -70
0 -25 -1 -49 -1 -55 -1 -6 -35 -10 -80 -10 l-79 0 1 80 0 80 78 0 c77 0 79 -1
80 -25z m-225 -180 c18 -4 21 -12 21 -80 1 -84 11 -77 -95 -77 -30 0 -56 2
-58 5 -4 4 -8 114 -5 143 1 11 95 17 137 9z m225 -14 c1 -17 1 -119 0 -136 -1
-5 -22 -9 -48 -8 -27 1 -62 2 -79 2 l-32 1 1 78 0 79 78 0 c65 0 79 -3 80 -16z"/>
<path d="M98 4130 c-10 -3 -13 -27 -14 -82 l0 -78 83 0 83 0 0 83 0 82 -69 1
c-38 0 -76 -3 -83 -6z"/>
<path d="M415 3920 c-2 -3 -3 -40 -4 -82 l-1 -78 85 0 84 0 -1 83 -2 83 -79 0
c-43 -1 -80 -3 -82 -6z"/>
<path d="M623 3917 c-5 -8 -7 -95 -4 -144 1 -14 160 -19 162 -5 1 11 1 125 0
142 -1 12 -17 15 -77 15 -41 1 -78 -3 -81 -8z"/>
<path d="M619 3675 c-3 -132 -10 -122 75 -121 41 1 78 5 82 8 5 6 8 91 5 146
-1 8 -24 12 -81 12 l-80 0 -1 -45z"/>
<path d="M85 3630 c-1 -48 3 -80 10 -81 5 -1 43 -2 83 -3 l72 -2 0 83 0 83
-83 0 -82 0 0 -80z"/>
<path d="M411 3433 l1 -83 81 2 82 3 0 80 0 80 -82 1 -83 1 1 -84z"/>
<path d="M619 3494 c0 -13 0 -44 0 -69 0 -25 0 -52 0 -60 1 -12 17 -14 81 -13
89 1 82 -6 82 83 0 89 7 81 -82 82 -78 2 -80 1 -81 -23z"/>
<path d="M467 3312 l-58 -3 2 -80 2 -79 28 -1 c16 -1 40 -1 54 -1 14 0 38 0
54 1 l28 1 1 79 c0 78 0 79 -26 83 -15 1 -53 2 -85 0z"/>
<path d="M245 3098 c-2 -7 -3 -44 -2 -83 l2 -70 80 0 80 0 2 81 2 81 -80 2
c-57 1 -81 -2 -84 -11z"/>
<path d="M619 3080 c-1 -16 -1 -46 -1 -65 0 -80 -6 -75 82 -73 50 1 80 5 81
12 0 6 1 43 1 81 l0 70 -81 3 -81 3 -1 -31z"/>
<path d="M633 2900 c-15 -4 -18 -16 -18 -83 0 -61 3 -77 15 -78 8 0 45 -1 83
-2 74 -2 69 -8 69 78 0 97 5 90 -66 90 -36 0 -73 -2 -83 -5z"/>
<path d="M413 2618 l2 -83 65 0 c103 -1 99 -5 98 86 l0 79 -84 0 -84 0 3 -82z"/>
<path d="M173 1383 c-5 -1 -20 -4 -34 -7 -64 -14 -84 -117 -44 -230 47 -133
153 -232 274 -254 27 -5 968 -8 2097 -8 l2049 1 65 32 c36 17 84 51 108 75
109 109 149 301 77 368 l-25 23 -2280 1 c-1254 1 -2283 0 -2287 -1z"/>
</g>
</svg>
